<?xml version="1.0" encoding="utf-8"?>
<!-- Generator: Adobe Illustrator 18.1.0, SVG Export Plug-In . SVG Version: 6.00 Build 0)  -->
<!DOCTYPE svg PUBLIC "-//W3C//DTD SVG 1.1//EN" "http://www.w3.org/Graphics/SVG/1.1/DTD/svg11.dtd">
<svg version="1.1" id="Layer_1" xmlns="http://www.w3.org/2000/svg" xmlns:xlink="http://www.w3.org/1999/xlink" x="0px" y="0px"
	 viewBox="0 0 262 262" enable-background="new 0 0 262 262" xml:space="preserve">
<circle fill="#FFFFFF" cx="131" cy="131" r="131"/>
<g>
	<path fill="#3B5998" d="M132,0C58.7,0,0,59.2,0,131.5c0,63.4,47.2,115.8,104.8,128.9V146.7H78.6V110h24.6c0-10.5,0-22,0-33
		c0-31.4,24.1-40.3,46.1-40.3c14.1,0,34.1,0,34.1,0l0,0l0,0v36.7c0,0-14.1,0-20.4,0c-0.5,0-13.1,0.5-13.1,13.1
		c0,5.2,0.5,23.6,0.5,23.6h35.1l-2.6,36.7h-36.2V262c68.1-9.4,115.3-63.9,115.3-130.5C262,59.2,204.9,0,132,0z"/>
</g>
</svg>
