<?xml version="1.0" encoding="utf-8"?>
<!-- Generator: Adobe Illustrator 18.1.0, SVG Export Plug-In . SVG Version: 6.00 Build 0)  -->
<!DOCTYPE svg PUBLIC "-//W3C//DTD SVG 1.1//EN" "http://www.w3.org/Graphics/SVG/1.1/DTD/svg11.dtd">
<svg version="1.1" id="Layer_1" xmlns="http://www.w3.org/2000/svg" xmlns:xlink="http://www.w3.org/1999/xlink" x="0px" y="0px"
	 viewBox="0 0 262 262" enable-background="new 0 0 262 262" xml:space="preserve">
<circle fill="#FFFFFF" cx="131" cy="131" r="131"/>
<g>
	<path fill="#D84B37" d="M113.2,109c5.8,0,10-2.1,13.1-6.8s4.7-10.5,4.7-17.3c0-7.9-1.6-13.6-4.7-18.3c-3.1-4.7-7.3-6.8-13.1-6.8
		c-3.1,0-5.8,0.5-7.9,2.1c-2.1,1-4.2,3.1-5.2,5.2S98,71.8,97.5,75c-0.5,3.1-1,6.3-1,9.4c0,7.3,1.6,13.1,4.7,17.8
		S107.9,109,113.2,109z"/>
	<path fill="#D84B37" d="M131,0C58.7,0,0,58.7,0,131s58.7,131,131,131s131-58.7,131-131S203.3,0,131,0z M161.4,179.2
		c-2.1,4.2-5.2,8.4-10,11.5c-4.7,3.1-10.5,5.8-16.8,7.9c-6.3,1.6-14.7,2.6-24.1,2.6c-15.7,0-27.8-2.1-35.6-6.8
		c-7.9-4.7-11.5-11.5-11.5-20.4c0-7.3,0.5-13.1,6.3-16.8s14.1-6.3,19.4-6.8v-1.6c0-0.5-2.1-1.6-4.2-2.6s-3.1-2.1-4.7-3.1
		c-1.6-1.6-2.6-3.1-3.7-5.2c-1-2.1-1.6-4.7-1.6-7.3c0-3.7,0.5-7.3,3.1-10.5c2.6-3.1,5.8-5.8,11-7.9v-1.6c-5.2-3.1-11-7.3-14.7-12.1
		S69.2,88,69.2,81.2c0-10,3.7-17.8,11-24.1c7.3-6.8,17.3-10,28.3-10c3.1,0,6.3,1,9.4,2.1c3.1,0.5,6.3,3.1,9.4,3.1h35.1v10.5h-21
		v-1.6c0,3.1,3.7,6.3,4.7,10s1.6,7.3,1.6,11c0,8.9-4.2,17.3-11.5,23.6c-7.3,6.3-16.2,10-26.2,10H97.5c-1.6,0-3.1,1.6-5.2,2.6
		c-1.6,1.6-2.6,3.1-2.6,5.8c0,2.6,0.5,4.7,2.1,5.8c1.6,1.6,3.1,2.1,5.2,2.6s4.2,1,7.3,1c2.6,0,5.8,0,8.4,0.5c3.1,0,7.3,0.5,12.6,0.5
		c5.2,0.5,9.4,0.5,11.5,0.5c3.1,0,6.3,1,10,2.1c3.1,1.6,6.3,3.1,8.9,5.8c2.6,2.6,5.2,5.8,6.8,8.9s2.6,7.3,2.6,12.6
		C165.1,170.3,164,174.5,161.4,179.2z M214.8,78.6h-21v26.2h-5.2V78.6h-26.2v-5.2h26.2v-21h5.2v21h21V78.6z"/>
	<path fill="#D84B37" d="M139.4,152.5c-1.6,0-5.8-0.5-11-1c-5.8-0.5-12.1-0.5-19.9-0.5c-6.8,1.6-12.1,3.7-15.2,6.8
		s-4.2,7.3-4.2,12.6c0,2.1,0.5,4.7,1.6,6.8c1,2.1,2.6,4.2,5.2,5.8c2.1,1.6,5.2,3.1,9.4,4.2c3.1,1,7.9,1.6,13.1,1.6
		c9.4,0,17.3-2.1,22.5-5.8c5.8-3.7,8.4-9.4,8.4-16.8c0-3.7-1-6.8-2.6-8.9C145.1,154.6,142.5,153,139.4,152.5z"/>
</g>
</svg>
