<?xml version="1.0" encoding="utf-8"?>
<!-- Generator: Adobe Illustrator 18.1.0, SVG Export Plug-In . SVG Version: 6.00 Build 0)  -->
<!DOCTYPE svg PUBLIC "-//W3C//DTD SVG 1.1//EN" "http://www.w3.org/Graphics/SVG/1.1/DTD/svg11.dtd">
<svg version="1.1" id="Layer_1" xmlns="http://www.w3.org/2000/svg" xmlns:xlink="http://www.w3.org/1999/xlink" x="0px" y="0px"
	 viewBox="0 0 262 262" enable-background="new 0 0 262 262" xml:space="preserve">
<circle fill="#FFFFFF" cx="131.1" cy="131" r="131"/>
<path fill="#007BB6" d="M131.1,0.1c-72.3,0-131,58.7-131,131s58.7,131,131,131s131-58.7,131-131S203.4,0.1,131.1,0.1z M89.2,188.8
	H63V83.9h26.2V188.8z M76.6,76.6c-9.4,0-15.7-6.8-15.2-14.7c0-8.4,5.8-14.7,15.7-14.7c9.4,0,15.7,6.3,15.7,14.7
	C92.3,70.3,86,76.6,76.6,76.6z M204.5,188.8h-26.2v-56.6c0-12.1-5.8-20.4-16.2-20.4c-7.9,0-15.2,5.8-16.8,11
	c-0.5,2.1-3.1,4.7-3.1,7.3v58.7H116v-68.6c0-12.1-0.5-20.4-1-36.2h26.1l0.5,21h0.5c10-21,19.9-14.7,28.8-14.7
	c19.4,0,33.5,10.5,33.5,38.3L204.5,188.8L204.5,188.8z"/>
</svg>
