<?xml version="1.0" encoding="utf-8"?>
<!-- Generator: Adobe Illustrator 18.1.0, SVG Export Plug-In . SVG Version: 6.00 Build 0)  -->
<!DOCTYPE svg PUBLIC "-//W3C//DTD SVG 1.1//EN" "http://www.w3.org/Graphics/SVG/1.1/DTD/svg11.dtd">
<svg version="1.1" id="Layer_1" xmlns="http://www.w3.org/2000/svg" xmlns:xlink="http://www.w3.org/1999/xlink" x="0px" y="0px"
	 viewBox="0 0 1048 1048" enable-background="new 0 0 1048 1048" xml:space="preserve">
<path fill="#D84B37" d="M110,502c5.8,0,10-2.1,13.1-6.8c3.1-4.7,4.7-10.5,4.7-17.3c0-7.9-1.6-13.6-4.7-18.3
	c-3.1-4.7-7.3-6.8-13.1-6.8c-3.1,0-5.8,0.5-7.9,2.1c-2.1,1-4.2,3.1-5.2,5.2c-1,2.1-2.1,4.7-2.6,7.9c-0.5,3.1-1,6.3-1,9.4
	c0,7.3,1.6,13.1,4.7,17.8C101.1,499.9,104.8,502,110,502z"/>
<path fill="#D84B37" d="M131,393C58.7,393,0,451.7,0,524s58.7,131,131,131s131-58.7,131-131S203.3,393,131,393z M161.4,572.2
	c-2.1,4.2-5.2,8.4-10,11.5c-4.7,3.1-10.5,5.8-16.8,7.9c-6.3,1.6-14.7,2.6-24.1,2.6c-15.7,0-27.8-2.1-35.6-6.8S63.4,575.9,63.4,567
	c0-7.3,0.5-13.1,6.3-16.8c5.8-3.7,14.1-6.3,19.4-6.8v-1.6c0-0.5-2.1-1.6-4.2-2.6c-2.1-1-3.1-2.1-4.7-3.1c-1.6-1.6-2.6-3.1-3.7-5.2
	c-1-2.1-1.6-4.7-1.6-7.3c0-3.7,0.5-7.3,3.1-10.5c2.6-3.1,5.8-5.8,11-7.9v-1.6c-5.2-3.1-11-7.3-14.7-12.1c-3.7-4.7-5.2-10.5-5.2-17.3
	c0-10,3.7-17.8,11-24.1c7.3-6.8,17.3-10,28.3-10c3.1,0,6.3,1,9.4,2.1c3.1,0.5,6.3,3.1,9.4,3.1h35.1v10.5h-21v-1.6
	c0,3.1,3.7,6.3,4.7,10c1,3.7,1.6,7.3,1.6,11c0,8.9-4.2,17.3-11.5,23.6s-16.2,10-26.2,10H97.5c-1.6,0-3.1,1.6-5.2,2.6
	c-1.6,1.6-2.6,3.1-2.6,5.8s0.5,4.7,2.1,5.8c1.6,1.6,3.1,2.1,5.2,2.6c2.1,0.5,4.2,1,7.3,1c2.6,0,5.8,0,8.4,0.5
	c3.1,0,7.3,0.5,12.6,0.5c5.2,0.5,9.4,0.5,11.5,0.5c3.1,0,6.3,1,10,2.1c3.1,1.6,6.3,3.1,8.9,5.8c2.6,2.6,5.2,5.8,6.8,8.9
	c1.6,3.1,2.6,7.3,2.6,12.6C165.1,563.3,164,567.5,161.4,572.2z M214.8,471.6h-21v26.2h-5.2v-26.2h-26.2v-5.2h26.2v-21h5.2v21h21
	V471.6z"/>
<path fill="#D84B37" d="M136.2,545.5c-1.6,0-5.8-0.5-11-1c-5.8-0.5-12.1-0.5-19.9-0.5c-6.8,1.6-12.1,3.7-15.2,6.8
	c-3.1,3.1-4.2,7.3-4.2,12.6c0,2.1,0.5,4.7,1.6,6.8c1,2.1,2.6,4.2,5.2,5.8c2.1,1.6,5.2,3.1,9.4,4.2c3.1,1,7.9,1.6,13.1,1.6
	c9.4,0,17.3-2.1,22.5-5.8c5.8-3.7,8.4-9.4,8.4-16.8c0-3.7-1-6.8-2.6-8.9C142,547.6,139.4,546,136.2,545.5z"/>
<path fill="#3B5998" d="M394,393c-73.4,0-132,59.2-132,131.5c0,63.4,47.2,115.8,104.8,128.9V539.7h-26.2V503h24.6c0-10.5,0-22,0-33
	c0-31.4,24.1-40.3,46.1-40.3c14.1,0,34.1,0,34.1,0l0,0l0,0v36.7c0,0-14.1,0-20.4,0c-0.5,0-13.1,0.5-13.1,13.1
	c0,5.2,0.5,23.6,0.5,23.6h35.1l-2.6,36.7h-36.2V655c68.1-9.4,115.3-63.9,115.3-130.5C524,452.2,466.9,393,394,393z"/>
<path fill="#00ACED" d="M655,393c-72.3,0-131,58.7-131,131s58.7,131,131,131s131-58.7,131-131S727.3,393,655,393z M730.5,487.3
	c0,1.6,0,3.1,0,4.7c0,48.7-37.2,104.8-104.8,104.8c-21,0-40.3-6.3-56.6-16.8c2.6,0.5,5.8,0.5,8.9,0.5c17.3,0,33-5.8,45.6-15.7
	c-16.2-0.5-29.9-11-34.6-25.7c2.1,0.5,4.7,0.5,6.8,0.5c3.1,0,6.3-0.5,9.4-1c-16.8-3.1-29.3-18.3-29.3-36.2V502
	c5.2,2.6,10.5,4.2,16.8,4.7c-10-6.8-16.2-17.8-16.2-30.4c0-6.8,2.1-13.1,5.2-18.3c18.3,22,45.1,36.7,76,38.3c-0.5-2.6-1-5.8-1-8.4
	c0-20.4,16.2-36.7,36.7-36.7c10.5,0,19.9,4.7,26.7,11.5c8.4-1.6,16.2-4.7,23.6-8.9c-2.6,8.4-8.4,15.7-16.2,20.4
	c7.3-1,14.7-2.6,21-5.8C743.6,475.8,737.8,482.1,730.5,487.3z"/>
<path fill="#007BB6" d="M917,393c-72.3,0-131,58.7-131,131s58.7,131,131,131s131-58.7,131-131S989.3,393,917,393z M875.1,581.6
	h-26.2V476.8h26.2V581.6z M862.5,469.5c-9.4,0-15.7-6.8-15.2-14.7c0-8.4,5.8-14.7,15.7-14.7c9.4,0,15.7,6.3,15.7,14.7
	C878.2,463.2,871.9,469.5,862.5,469.5z M990.4,581.6h-26.2V525c0-12.1-5.8-20.4-16.2-20.4c-7.9,0-15.2,5.8-16.8,11
	c-0.5,2.1-3.1,4.7-3.1,7.3v58.7h-26.2V513c0-12.1-0.5-20.4-1-36.2H927l0.5,21h0.5c10-21,19.9-14.7,28.8-14.7
	c19.4,0,33.5,10.5,33.5,38.3V581.6z"/>
</svg>
