<?xml version="1.0" encoding="utf-8"?>
<!-- Generator: Adobe Illustrator 18.1.0, SVG Export Plug-In . SVG Version: 6.00 Build 0)  -->
<!DOCTYPE svg PUBLIC "-//W3C//DTD SVG 1.1//EN" "http://www.w3.org/Graphics/SVG/1.1/DTD/svg11.dtd">
<svg version="1.1" id="Layer_1" xmlns="http://www.w3.org/2000/svg" xmlns:xlink="http://www.w3.org/1999/xlink" x="0px" y="0px"
	 viewBox="0 0 262 262" enable-background="new 0 0 262 262" xml:space="preserve">
<circle fill="#FFFFFF" cx="131" cy="130" r="131"/>
<path fill="#00ACED" d="M131,0C58.7,0,0,58.7,0,131s58.7,131,131,131s131-58.7,131-131S203.3,0,131,0z M206.5,94.3
	c0,1.6,0,3.1,0,4.7c0,48.7-37.2,104.8-104.8,104.8c-21,0-40.3-6.3-56.6-16.8c2.6,0.5,5.8,0.5,8.9,0.5c17.3,0,33-5.8,45.6-15.7
	c-16.2-0.5-29.9-11-34.6-25.7c2.1,0.5,4.7,0.5,6.8,0.5c3.1,0,6.3-0.5,9.4-1c-16.8-3.1-29.3-18.3-29.3-36.2V109
	c5.2,2.6,10.5,4.2,16.8,4.7c-10-6.8-16.2-17.8-16.2-30.4c0-6.8,2.1-13.1,5.2-18.3c18.3,22,45.1,36.7,76,38.3c-0.5-2.6-1-5.8-1-8.4
	c0-20.4,16.2-36.7,36.7-36.7c10.5,0,19.9,4.7,26.7,11.5c8.4-1.6,16.2-4.7,23.6-8.9c-2.6,8.4-8.4,15.7-16.2,20.4
	c7.3-1,14.7-2.6,21-5.8C219.6,82.8,213.8,89.1,206.5,94.3z"/>
</svg>
